<?xml version="1.0" standalone="no"?>
<!DOCTYPE svg PUBLIC "-//W3C//DTD SVG 20010904//EN"
 "http://www.w3.org/TR/2001/REC-SVG-20010904/DTD/svg10.dtd">
<svg version="1.0" xmlns="http://www.w3.org/2000/svg"
 width="1024.000000pt" height="1024.000000pt" viewBox="0 0 1024.000000 1024.000000"
 preserveAspectRatio="xMidYMid meet">

<g transform="translate(0.000000,1024.000000) scale(0.100000,-0.100000)"
fill="white" stroke="none">
<path d="M5155 8228 c-104 -11 -204 -26 -221 -33 -92 -38 -90 -173 3 -211 31
-13 49 -13 156 0 67 8 156 18 197 22 101 9 152 31 174 78 14 30 15 43 6 71
-12 35 -61 85 -85 85 -7 0 -19 2 -27 4 -7 2 -98 -5 -203 -16z"/>
<path d="M4660 8025 c-24 -29 8 -75 44 -62 30 12 14 77 -20 77 -6 0 -17 -7
-24 -15z"/>
<path d="M4337 7936 c-30 -23 -41 -70 -23 -105 28 -54 83 -67 130 -30 58 45
19 149 -56 149 -18 0 -41 -7 -51 -14z"/>
<path d="M6969 7886 c-129 -36 -260 -146 -319 -270 -91 -191 -49 -421 102
-562 204 -188 507 -188 693 0 274 277 159 720 -214 830 -65 19 -196 20 -262 2z
m161 -289 c0 -17 9 -27 33 -38 23 -10 33 -22 35 -41 3 -24 0 -28 -22 -28 -14
0 -28 5 -31 10 -7 11 -54 13 -79 4 -19 -7 -21 -38 -3 -51 6 -5 35 -14 62 -21
57 -14 95 -50 95 -90 -1 -36 -29 -71 -65 -81 -22 -6 -30 -14 -29 -29 1 -32
-43 -31 -48 1 -2 15 -11 23 -29 25 -36 4 -63 35 -54 61 7 24 37 28 54 7 32
-38 115 -25 109 16 -2 16 -17 26 -58 39 -66 21 -100 57 -100 105 0 38 29 74
60 74 16 0 20 7 20 30 0 25 4 30 25 30 19 0 25 -5 25 -23z"/>
<path d="M4004 7777 c-11 -7 -57 -43 -102 -81 -56 -48 -85 -79 -93 -104 -32
-96 74 -202 169 -168 17 6 69 48 116 92 97 95 108 120 78 187 -32 71 -112 107
-168 74z"/>
<path d="M5176 7764 c-330 -45 -599 -164 -881 -391 -289 -232 -525 -607 -614
-972 -42 -172 -55 -298 -48 -491 6 -186 21 -273 77 -441 164 -494 562 -888
1045 -1034 154 -47 278 -65 440 -65 362 0 707 122 974 345 225 188 398 434
501 715 53 143 59 223 21 264 -36 38 -82 50 -124 32 -43 -17 -55 -39 -97 -176
-66 -218 -181 -410 -340 -569 -184 -185 -388 -299 -645 -359 -95 -22 -134 -26
-280 -26 -186 -1 -255 9 -400 56 -549 179 -919 670 -951 1262 -14 247 41 504
160 752 92 192 209 344 387 504 486 436 1134 517 1714 215 61 -31 148 -82 194
-113 83 -56 86 -59 118 -136 63 -149 170 -270 308 -346 39 -22 92 -45 118 -52
37 -9 46 -16 41 -27 -20 -50 -20 -71 -2 -136 94 -346 102 -402 95 -670 -6
-230 -22 -321 -92 -533 -139 -417 -408 -751 -791 -982 -119 -73 -149 -127
-105 -194 42 -63 87 -70 174 -25 280 142 568 425 766 752 112 185 219 487 257
719 22 139 30 442 14 566 -16 135 -44 257 -88 394 l-38 117 35 6 c40 8 111 42
111 53 -1 4 -8 16 -18 27 -15 18 -30 20 -137 20 -144 1 -218 20 -308 77 -190
123 -295 348 -268 576 4 34 4 62 -1 62 -21 0 -77 -30 -85 -45 -9 -16 -13 -15
-50 8 -128 81 -375 187 -528 226 -188 49 -455 63 -659 35z"/>
<path d="M3686 7341 c-23 -25 -13 -59 20 -67 46 -12 72 37 38 70 -21 21 -37
20 -58 -3z"/>
<path d="M5160 7311 c-268 -57 -492 -182 -682 -378 -113 -118 -164 -189 -232
-322 -95 -186 -141 -355 -152 -565 -19 -338 88 -637 310 -873 174 -185 383
-298 626 -338 127 -22 304 -16 425 14 491 121 825 569 825 1105 0 195 -30 310
-89 340 -66 35 -141 6 -162 -63 -10 -33 -9 -51 7 -113 28 -110 24 -282 -10
-413 -47 -181 -126 -316 -254 -437 -452 -426 -1212 -214 -1406 392 -74 229
-72 453 6 690 106 327 393 612 718 715 302 95 524 67 862 -108 l118 -61 42 14
c81 29 103 102 51 169 -21 26 -66 55 -163 104 -225 114 -364 147 -604 146
-105 0 -177 -6 -236 -18z"/>
<path d="M3406 6935 c-75 -69 -180 -385 -222 -665 -22 -141 -24 -457 -6 -575
86 -532 348 -993 762 -1336 160 -133 368 -248 605 -334 72 -26 137 -50 145
-54 8 -3 -278 -8 -636 -11 -700 -5 -684 -4 -684 -56 0 -13 9 -33 20 -44 20
-20 33 -20 1843 -20 1754 0 1825 1 1840 18 22 24 21 65 -1 85 -17 15 -93 17
-838 19 l-819 3 3 32 c4 41 -21 89 -58 108 -17 9 -56 15 -97 15 -101 0 -287
18 -378 36 -203 41 -462 148 -653 271 -321 206 -571 512 -709 868 -57 146 -99
302 -118 434 -25 175 -17 447 19 617 31 146 84 302 138 406 47 89 47 126 -1
177 -25 27 -36 31 -79 31 -39 0 -55 -5 -76 -25z"/>
<path d="M5167 6792 c-10 -10 -17 -30 -17 -44 0 -22 -6 -27 -46 -37 -112 -28
-203 -97 -255 -193 -32 -59 -34 -69 -34 -153 0 -79 4 -97 28 -142 49 -93 115
-153 255 -228 l52 -28 0 -194 c0 -168 -2 -193 -15 -193 -29 0 -77 31 -141 91
-71 66 -102 74 -147 39 -58 -46 -36 -133 55 -215 54 -49 151 -99 211 -110 29
-6 37 -12 37 -29 0 -25 38 -66 61 -66 25 1 51 28 58 61 6 29 12 34 52 45 112
28 209 108 257 212 21 46 26 72 26 132 0 66 -4 82 -34 138 -41 78 -101 133
-213 196 l-87 48 0 205 0 204 23 -6 c40 -13 83 -44 130 -95 48 -52 71 -60 121
-40 14 5 33 24 42 41 24 48 5 100 -61 165 -53 51 -180 124 -217 124 -11 0 -23
11 -30 28 -27 63 -77 82 -111 44z m-17 -437 l0 -166 -29 15 c-108 56 -145 139
-101 226 19 37 88 90 118 90 9 0 12 -40 12 -165z m182 -488 c94 -72 113 -154
52 -219 -25 -26 -92 -68 -109 -68 -3 0 -5 72 -5 160 0 91 4 160 9 160 5 0 29
-15 53 -33z"/>
<path d="M6282 6764 c-15 -11 -22 -25 -22 -50 0 -69 78 -101 119 -48 27 35 26
59 -4 89 -28 29 -61 32 -93 9z"/>
<path d="M6523 6531 c-29 -14 -49 -33 -68 -66 -67 -113 9 -255 137 -255 83 0
138 42 158 121 14 57 1 114 -36 159 -52 61 -115 75 -191 41z"/>
<path d="M6613 6033 c-19 -7 -16 -51 4 -62 37 -20 71 27 41 57 -13 13 -24 14
-45 5z"/>
<path d="M5686 4164 c-8 -22 12 -56 31 -52 22 4 38 32 30 52 -8 21 -53 21 -61
0z"/>
<path d="M3440 3487 c-14 -7 -33 -29 -44 -51 -25 -51 -10 -108 37 -136 76 -46
156 -1 157 89 0 36 -6 49 -34 77 -37 37 -72 43 -116 21z"/>
<path d="M6760 3000 l0 -440 85 0 85 0 0 91 c0 86 10 129 30 129 5 0 37 -37
71 -82 110 -147 96 -138 221 -138 59 0 108 4 108 8 0 5 -19 31 -42 58 -24 27
-87 104 -141 171 l-98 122 115 139 c64 77 116 143 116 146 0 3 -44 6 -99 6
l-99 0 -63 -82 c-35 -45 -76 -95 -91 -112 l-27 -31 -1 228 0 227 -85 0 -85 0
0 -440z"/>
<path d="M4280 3345 l0 -85 145 0 145 0 2 -347 3 -348 87 -3 88 -3 2 348 3
348 138 3 137 3 0 84 0 85 -375 0 -375 0 0 -85z"/>
<path d="M2109 3397 c-127 -43 -239 -159 -275 -285 -26 -89 -16 -220 23 -303
52 -113 133 -186 250 -229 51 -18 77 -21 155 -18 81 3 102 7 158 35 36 18 84
52 108 76 l43 44 -62 57 c-58 54 -62 56 -83 41 -88 -64 -99 -69 -161 -73 -80
-5 -122 9 -179 59 -147 130 -90 369 102 425 79 23 167 0 234 -63 30 -29 32
-28 109 39 l53 48 -44 45 c-114 116 -277 155 -431 102z"/>
<path d="M8543 3235 c-3 -9 -3 -18 -1 -21 3 -3 8 4 11 16 6 23 -1 27 -10 5z"/>
<path d="M8597 3222 c3 -27 3 -27 -7 -3 -8 19 -13 22 -23 12 -9 -10 -8 -15 7
-26 10 -8 23 -12 27 -9 12 7 12 41 0 48 -4 3 -6 -7 -4 -22z"/>
<path d="M2860 3217 c-62 -17 -109 -48 -159 -102 -63 -68 -84 -124 -85 -220 0
-68 4 -88 28 -133 38 -75 99 -137 165 -169 76 -38 200 -40 276 -5 63 29 129
93 163 157 37 72 42 188 13 266 -59 155 -244 250 -401 206z m170 -190 c48 -31
74 -81 74 -139 0 -115 -140 -189 -240 -128 -45 28 -78 99 -71 152 15 112 147
176 237 115z"/>
<path d="M5335 3211 c-22 -10 -46 -26 -54 -35 -8 -9 -28 -27 -44 -38 l-30 -22
6 47 7 47 -90 0 -90 0 0 -325 0 -325 85 0 85 0 0 173 c0 173 0 173 28 218 16
24 44 57 62 73 28 23 41 27 72 23 38 -5 39 -4 83 61 49 73 48 83 -12 109 -42
17 -60 16 -108 -6z"/>
<path d="M6384 3220 c-104 -22 -194 -93 -236 -188 -33 -72 -31 -199 4 -273 33
-73 89 -134 152 -167 45 -24 62 -27 146 -27 73 0 103 4 130 19 41 21 110 85
110 101 0 6 -22 32 -49 59 l-49 48 -38 -26 c-30 -20 -51 -26 -94 -26 -124 0
-193 111 -141 226 37 82 134 108 220 58 l44 -25 49 48 c26 26 48 53 48 59 0
18 -68 74 -114 95 -51 22 -128 30 -182 19z"/>
<path d="M7589 3217 c-103 -29 -171 -88 -218 -187 -22 -46 -26 -69 -26 -140 0
-73 4 -93 28 -141 30 -63 92 -125 159 -161 37 -20 57 -23 148 -23 90 0 111 3
148 23 51 27 122 90 121 106 -1 6 -23 30 -49 54 l-48 43 -47 -30 c-57 -36
-116 -47 -172 -32 -41 11 -103 59 -103 80 0 8 67 11 220 11 l220 0 6 26 c11
44 -3 140 -29 197 -61 134 -222 212 -358 174z m137 -166 c47 -22 94 -78 72
-86 -8 -3 -74 -4 -148 -3 l-135 3 39 43 c55 61 105 73 172 43z"/>
<path d="M8339 3201 c-25 -15 -55 -41 -67 -57 l-21 -29 -1 48 0 47 -90 0 -90
0 0 -325 0 -325 85 0 85 0 0 165 c0 189 5 208 72 279 39 40 50 46 85 46 37 0
43 4 86 60 26 33 47 62 47 65 0 2 -17 16 -37 30 -50 34 -97 33 -154 -4z"/>
<path d="M3956 3191 l-56 -30 0 25 c0 24 -1 24 -90 24 l-90 0 0 -325 0 -326
88 3 c60 2 87 7 88 16 1 6 2 99 3 206 l1 194 30 30 c59 59 153 46 192 -28 16
-30 18 -60 18 -227 l0 -193 85 0 85 0 0 238 c0 228 -1 239 -24 287 -59 127
-202 173 -330 106z"/>
<path d="M5645 3203 c-51 -19 -145 -89 -145 -108 1 -5 19 -30 40 -54 l40 -43
52 26 c38 19 67 26 111 26 51 0 62 -4 88 -29 21 -21 29 -39 29 -64 l0 -34 -57
19 c-120 41 -278 -13 -319 -109 -35 -81 -7 -176 69 -237 35 -28 47 -31 121
-34 90 -4 139 12 181 58 l20 22 5 -38 5 -39 78 -3 77 -3 0 228 c-1 244 -6 274
-53 336 -13 18 -49 46 -78 62 -70 38 -186 45 -264 18z m182 -384 c38 -14 45
-30 26 -59 -23 -34 -42 -48 -85 -60 -59 -17 -128 21 -128 70 0 6 12 22 26 35
22 20 38 25 80 25 29 0 65 -5 81 -11z"/>
<path d="M3400 2885 l0 -326 88 3 87 3 3 323 2 322 -90 0 -90 0 0 -325z"/>
<path d="M3396 2169 c-45 -54 -30 -123 34 -149 41 -17 84 1 105 46 20 43 11
78 -30 109 -44 34 -77 32 -109 -6z m104 -28 c18 -34 12 -69 -15 -87 -23 -15
-27 -15 -49 0 -31 20 -39 46 -27 80 9 21 17 26 45 26 25 0 38 -6 46 -19z"/>
<path d="M4100 2189 c0 -6 -15 -47 -34 -90 -31 -72 -33 -79 -16 -79 11 0 24 9
30 20 8 15 21 20 50 20 30 0 40 -5 45 -20 3 -11 15 -20 25 -20 18 0 16 7 -16
78 -20 42 -38 83 -41 90 -6 15 -43 16 -43 1z m45 -79 c5 -23 3 -26 -19 -26
-14 0 -26 1 -26 2 0 0 5 16 11 33 12 35 24 32 34 -9z"/>
<path d="M4300 2193 c-25 -9 -52 -36 -61 -61 -11 -29 11 -86 41 -102 32 -17
94 -9 98 13 3 16 -1 17 -33 11 -64 -12 -100 51 -55 96 23 23 33 24 62 9 24
-13 46 2 26 19 -17 14 -59 22 -78 15z"/>
<path d="M4516 2158 c-18 -21 -36 -38 -39 -38 -4 0 -7 16 -7 35 0 24 -5 35
-15 35 -12 0 -15 -16 -15 -85 0 -69 3 -85 15 -85 9 0 15 9 15 24 0 13 6 29 14
35 12 10 20 5 43 -23 18 -23 37 -36 51 -36 22 0 21 3 -17 46 -43 49 -43 61 -2
98 25 23 27 33 5 33 -8 0 -30 -18 -48 -39z"/>
<path d="M4740 2106 c0 -108 -4 -104 84 -89 28 4 43 14 57 37 26 43 24 70 -8
106 -22 24 -39 32 -80 37 l-53 6 0 -97z m108 42 c15 -15 16 -53 2 -79 -8 -13
-21 -19 -45 -19 l-35 0 0 55 0 55 33 0 c18 0 38 -5 45 -12z"/>
<path d="M5753 2194 c-8 -4 -1 -20 19 -49 l31 -44 -26 -35 c-31 -40 -33 -46
-13 -46 8 0 24 12 35 28 l20 27 26 -32 c15 -18 33 -33 41 -33 20 0 18 6 -17
55 l-32 44 33 40 c28 37 30 41 12 41 -11 0 -27 -11 -36 -25 -21 -32 -28 -31
-49 5 -18 30 -22 32 -44 24z"/>
<path d="M5967 2194 c-4 -4 -7 -47 -7 -96 0 -72 3 -88 15 -88 10 0 15 11 15
35 0 33 2 35 35 35 40 0 80 32 71 57 -3 8 -6 19 -6 23 0 20 -107 49 -123 34z
m91 -56 c-2 -18 -11 -24 -35 -26 -30 -3 -33 -1 -33 22 0 23 4 26 36 26 31 0
35 -3 32 -22z"/>
<path d="M6329 2196 c-2 -2 -2 -44 1 -93 6 -99 22 -114 30 -26 l5 57 43 -57
c58 -78 72 -75 72 12 0 38 3 76 6 85 4 12 0 16 -15 16 -19 0 -21 -6 -21 -50 0
-27 -3 -50 -7 -50 -5 1 -28 25 -52 55 -41 52 -52 61 -62 51z"/>
<path d="M6560 2182 c-21 -17 -23 -24 -15 -48 7 -20 21 -32 45 -40 19 -7 37
-19 39 -29 3 -16 -2 -17 -37 -11 -51 8 -63 -8 -21 -29 26 -14 36 -14 60 -5 58
24 44 90 -22 104 -16 3 -29 12 -29 20 0 22 17 28 41 16 24 -14 51 2 33 20 -21
21 -69 22 -94 2z"/>
<path d="M6945 2192 c-30 -6 -45 -22 -45 -47 0 -27 13 -39 63 -55 51 -16 42
-35 -17 -33 -32 1 -46 -3 -46 -12 0 -28 88 -35 114 -9 31 30 13 79 -34 89 -35
8 -47 22 -31 38 7 7 18 7 37 -2 22 -10 29 -9 35 1 4 7 7 14 5 16 -9 8 -63 18
-81 14z"/>
<path d="M3190 2175 c0 -10 10 -15 30 -15 l30 0 0 -70 c0 -56 3 -70 15 -70 12
0 15 14 15 70 l0 70 30 0 c20 0 30 5 30 15 0 12 -15 15 -75 15 -60 0 -75 -3
-75 -15z"/>
<path d="M3660 2175 c0 -10 10 -15 30 -15 l29 0 3 -72 c2 -55 7 -73 17 -73 11
0 14 15 12 72 -2 71 -2 72 25 75 15 2 29 9 32 16 3 9 -16 12 -72 12 -61 0 -76
-3 -76 -15z"/>
<path d="M3855 2105 c0 -74 2 -85 18 -85 12 0 17 8 17 30 0 17 4 30 10 30 5 0
22 -13 37 -30 14 -16 35 -30 46 -30 20 0 20 1 -2 24 l-23 24 21 21 c23 23 27
52 11 82 -9 16 -22 19 -73 19 l-62 0 0 -85z m111 40 c9 -23 -15 -45 -47 -45
-26 0 -29 4 -29 30 0 28 3 30 35 30 23 0 38 -6 41 -15z"/>
<path d="M4970 2126 c-40 -87 -46 -116 -27 -116 9 0 19 9 22 20 4 14 15 20 35
20 16 0 35 3 43 6 10 3 18 -2 22 -15 3 -12 15 -21 25 -21 17 0 17 5 -11 72
-50 121 -67 127 -109 34z m65 -6 c8 -16 15 -32 15 -35 0 -5 -50 4 -58 10 -3 3
20 55 24 55 2 0 10 -13 19 -30z"/>
<path d="M5160 2105 l0 -85 65 0 c51 0 65 3 65 15 0 11 -12 15 -51 15 l-51 0
7 70 c6 66 6 70 -14 70 -20 0 -21 -5 -21 -85z"/>
<path d="M5314 2140 c25 -35 36 -61 36 -85 0 -24 5 -35 15 -35 10 0 15 10 15
33 0 20 12 52 30 80 35 56 35 57 13 57 -10 0 -26 -15 -36 -32 l-19 -33 -26 33
c-15 18 -35 32 -45 32 -16 0 -13 -8 17 -50z"/>
<path d="M5580 2105 l0 -85 60 0 c47 0 60 3 60 15 0 11 -12 15 -45 15 -41 0
-45 2 -45 25 0 23 4 25 41 25 52 0 48 24 -4 28 -24 2 -37 8 -37 18 0 10 13 14
45 14 33 0 45 4 45 15 0 12 -13 15 -60 15 l-60 0 0 -85z"/>
<path d="M6150 2105 l0 -86 57 3 c71 4 88 28 19 28 -39 0 -46 3 -46 20 0 16 7
20 35 20 24 0 35 5 35 15 0 10 -11 15 -35 15 -28 0 -35 4 -35 20 0 17 7 20 45
20 33 0 45 4 45 15 0 12 -13 15 -60 15 l-60 0 0 -85z"/>
<path d="M6722 2103 l3 -88 60 0 c47 0 60 3 60 15 0 10 -13 16 -42 18 -34 3
-43 7 -43 22 0 15 9 20 38 22 20 2 37 8 37 13 0 6 -17 11 -37 13 -30 3 -38 7
-38 23 0 16 7 19 45 19 33 0 45 4 45 15 0 12 -14 15 -65 15 l-66 0 3 -87z"/>
</g>
</svg>
