<?xml version="1.0" standalone="no"?>
<!DOCTYPE svg PUBLIC "-//W3C//DTD SVG 20010904//EN"
 "http://www.w3.org/TR/2001/REC-SVG-20010904/DTD/svg10.dtd">
<svg version="1.0" xmlns="http://www.w3.org/2000/svg"
 width="300.000000pt" height="295.000000pt" viewBox="0 0 300.000000 295.000000"
 preserveAspectRatio="xMidYMid meet">
<metadata>
Created by potrace 1.10, written by Peter Selinger 2001-2011
</metadata>
<g transform="translate(0.000000,295.000000) scale(0.100000,-0.100000)"
fill="#000000" stroke="none">
<path d="M1365 2739 c-229 -17 -485 -117 -673 -263 -77 -59 -208 -197 -264
-276 -236 -336 -299 -756 -172 -1145 35 -106 121 -273 186 -360 154 -206 384
-373 625 -453 601 -202 1267 66 1556 625 256 495 166 1094 -224 1490 -275 279
-633 411 -1034 382z m298 -49 c304 -44 587 -205 783 -445 58 -70 145 -209 176
-280 30 -69 71 -203 88 -289 14 -68 17 -300 6 -391 -35 -291 -214 -610 -441
-786 -233 -181 -444 -263 -715 -277 -153 -8 -247 -1 -367 27 -101 24 -230 70
-280 101 l-33 20 26 37 c20 30 24 45 19 75 -8 44 2 48 34 14 12 -13 46 -36 76
-51 48 -24 63 -27 127 -23 66 3 81 8 158 53 l85 50 105 0 c81 0 112 -4 135
-17 17 -10 63 -34 103 -54 67 -34 78 -36 140 -32 97 7 153 38 216 120 39 52
47 145 19 209 -24 55 -76 115 -116 135 -27 15 -30 14 -54 -8 -18 -17 -23 -31
-20 -51 2 -15 0 -30 -5 -33 -9 -6 -74 15 -147 48 -90 40 -173 39 -232 -3 -33
-23 -35 -23 -68 0 -15 11 -39 23 -54 26 -15 4 -27 11 -27 15 0 4 16 24 35 45
57 63 70 99 70 195 0 81 -2 88 -37 142 -20 31 -49 64 -63 74 -14 9 -25 20 -25
24 0 4 96 10 213 13 249 7 429 32 546 77 141 55 197 132 162 223 -14 35 -72
87 -98 87 -31 0 -56 -28 -50 -57 5 -26 -24 -53 -56 -53 -15 0 -17 4 -11 18 10
19 18 740 9 788 -6 34 -38 75 -71 92 -11 6 -79 23 -150 38 -117 25 -149 27
-349 28 -223 1 -289 -6 -442 -45 -93 -23 -106 -31 -132 -74 -20 -35 -21 -47
-21 -415 0 -267 3 -387 12 -405 15 -34 7 -39 -36 -21 -31 13 -36 19 -36 48 0
64 -49 78 -99 29 -88 -86 -75 -171 38 -243 69 -43 205 -83 299 -87 26 -2 9
-27 -40 -59 -38 -24 -60 -32 -92 -30 -49 1 -172 -45 -198 -75 -22 -24 -21 -21
-17 -192 0 -5 -2 -43 -4 -83 -2 -40 0 -75 4 -77 4 -3 3 -22 -2 -42 -4 -21 -4
-42 1 -47 4 -4 5 -20 1 -35 -6 -22 -6 -54 0 -176 0 -5 0 -19 -1 -30 0 -11 0
-33 1 -48 3 -47 -14 -53 -63 -19 -62 43 -195 185 -250 268 -95 143 -168 317
-199 474 -20 100 -17 367 5 470 56 261 165 461 358 652 168 167 413 292 650
332 101 17 303 20 401 6z m45 -121 c103 -11 260 -42 303 -60 15 -6 31 -22 38
-35 7 -17 11 -142 11 -399 0 -454 15 -413 -165 -450 -175 -35 -351 -47 -515
-34 -208 16 -382 55 -400 89 -6 12 -10 160 -10 405 l0 386 23 23 c18 18 52 28
163 49 76 15 159 28 184 30 104 8 277 6 368 -4z m-869 -858 c-21 -29 -21 -31
-5 -56 26 -39 84 -58 291 -92 158 -26 612 -26 770 0 142 24 249 51 280 71 29
19 35 70 10 80 -17 6 -21 26 -5 26 20 0 89 -72 95 -100 20 -93 -124 -170 -388
-207 -172 -23 -575 -23 -747 2 -151 21 -261 54 -326 98 -78 52 -84 112 -18
174 46 43 74 45 43 4z m499 -380 c86 -44 132 -119 132 -216 0 -75 -24 -128
-78 -177 -133 -120 -347 -58 -394 115 -11 42 -14 45 -38 40 -21 -4 -36 3 -64
27 -20 18 -36 28 -36 22 0 -5 7 -15 15 -22 19 -16 19 -44 -1 -61 -14 -11 -14
-13 0 -21 21 -12 20 -47 0 -70 -16 -16 -16 -18 0 -24 20 -8 21 -42 1 -64 -14
-15 -14 -18 0 -30 8 -7 15 -19 15 -28 0 -8 -7 -23 -15 -32 -14 -15 -14 -18 0
-30 19 -16 19 -44 0 -63 -13 -13 -13 -16 0 -27 20 -16 19 -57 -1 -68 -14 -8
-14 -10 0 -21 21 -17 21 -57 0 -69 -14 -8 -14 -10 0 -21 23 -19 20 -57 -6 -75
-29 -20 -34 -20 -58 4 -24 24 -25 43 -4 64 14 15 14 17 0 32 -20 19 -20 48 -1
64 13 11 13 14 0 27 -19 19 -19 42 0 63 14 15 14 18 0 30 -19 16 -19 39 0 60
14 15 14 18 0 30 -8 7 -15 19 -15 28 0 8 7 23 15 32 14 15 14 18 0 30 -8 7
-15 19 -15 28 0 8 7 23 15 32 14 15 14 18 0 30 -19 16 -19 44 0 63 13 13 13
16 0 27 -19 16 -19 45 1 64 14 15 14 17 0 32 -30 30 -10 74 34 74 17 0 39 9
50 20 30 30 69 36 104 16 29 -17 29 -17 65 17 82 79 185 96 279 48z m-367
-323 c12 -24 33 -56 48 -72 l26 -28 -25 -17 c-14 -9 -38 -29 -53 -46 -22 -24
-29 -27 -36 -16 -7 10 -8 205 -2 219 6 12 24 -6 42 -40z m84 -175 c-3 -16 -9
-43 -12 -62 l-6 -34 39 5 c22 3 92 26 156 52 65 25 127 46 138 46 36 0 85 -26
114 -60 l28 -34 24 31 c30 39 97 67 140 58 18 -3 75 -23 126 -45 166 -69 208
-64 174 20 -20 51 -20 52 6 48 13 -2 41 -27 67 -61 42 -54 46 -64 49 -125 3
-62 1 -70 -27 -109 -50 -69 -102 -97 -185 -101 -76 -3 -69 -6 -211 74 -67 37
-74 39 -160 39 l-90 -1 -108 -57 c-95 -50 -115 -57 -165 -57 -98 1 -175 50
-213 136 -33 73 -14 146 58 225 43 47 69 52 58 12z m113 6 c30 -12 20 -26 -28
-40 -48 -15 -54 -10 -45 31 7 32 9 33 73 9z"/>
<path d="M1133 1275 c-55 -33 -98 -117 -90 -175 8 -63 50 -125 100 -149 177
-85 351 107 243 269 -53 80 -169 105 -253 55z m172 -35 c120 -74 78 -263 -61
-270 -167 -10 -219 213 -64 282 31 14 93 8 125 -12z"/>
<path d="M921 1207 c-25 -31 21 -77 54 -54 26 20 16 61 -16 65 -14 2 -31 -3
-38 -11z"/>
<path d="M1199 733 c-112 -55 -143 -67 -186 -67 -53 -1 -64 -11 -41 -34 18
-18 117 -14 163 7 22 10 76 41 120 70 92 59 144 67 203 31 32 -20 32 -20 23
-1 -16 30 -74 61 -113 61 -23 0 -81 -23 -169 -67z"/>
<path d="M1605 788 c-28 -15 -65 -50 -65 -60 0 -5 12 0 26 11 44 34 108 29
180 -16 125 -78 183 -103 239 -103 38 0 56 5 68 18 10 10 17 20 17 23 0 2 -25
4 -55 5 -48 0 -73 9 -188 67 -134 68 -179 79 -222 55z"/>
<path d="M982 745 c-19 -41 -15 -45 36 -45 44 0 46 1 22 13 -13 7 -30 22 -36
35 l-11 22 -11 -25z"/>
<path d="M2018 748 c-2 -12 -14 -28 -28 -35 -24 -12 -22 -13 23 -13 26 0 47 2
47 5 0 9 -30 65 -35 65 -2 0 -5 -10 -7 -22z"/>
<path d="M1344 720 c-11 -4 -55 -31 -97 -58 -94 -61 -163 -86 -223 -79 -24 2
-44 3 -44 1 0 -16 72 -44 112 -44 59 0 86 10 178 70 89 56 137 72 182 59 17
-5 34 -7 36 -4 15 14 -68 66 -105 64 -10 0 -27 -4 -39 -9z"/>
<path d="M1595 718 c-26 -14 -65 -49 -65 -59 0 -3 17 -1 39 7 50 17 89 6 172
-48 123 -79 189 -95 264 -64 45 19 45 36 0 29 -47 -8 -120 12 -180 50 -169
104 -185 110 -230 85z"/>
<path d="M1355 619 c-22 -12 -59 -35 -83 -51 -55 -38 -104 -58 -142 -58 -16 0
-30 -4 -30 -10 0 -5 20 -10 45 -10 33 0 64 11 122 42 133 71 151 78 190 78 36
1 37 2 19 15 -28 21 -75 19 -121 -6z"/>
<path d="M1558 633 c-30 -8 -20 -23 16 -23 21 0 76 -22 150 -60 85 -43 128
-60 157 -60 21 0 39 5 39 10 0 6 -13 10 -29 10 -30 0 -96 32 -195 93 -57 35
-91 43 -138 30z"/>
</g>
</svg>
